<?xml version="1.0" encoding="UTF-8"?>
<svg width="764px" height="100px" viewBox="0 0 764 100" version="1.1" xmlns="http://www.w3.org/2000/svg" xmlns:xlink="http://www.w3.org/1999/xlink">
    <!-- Generator: Sketch 48.2 (47327) - http://www.bohemiancoding.com/sketch -->
    <title>web-banner-fg</title>
    <desc>Created with Sketch.</desc>
    <defs></defs>
    <g id="Web" stroke="none" stroke-width="1" fill="none" fill-rule="evenodd">
        <g id="web-banner-fg" fill="#FFFFFF" fill-rule="nonzero">
            <g id="Group" opacity="0.672044837" transform="translate(30.000000, 38.000000)">
                <path d="M246.944444,8.35794422 C246.361477,8.35794422 245.888889,8.82539871 245.888889,9.40203305 L245.888889,13.5783884 C245.888889,17.6148288 242.580771,20.8870102 238.5,20.8870102 C234.419229,20.8870102 231.111111,17.6148288 231.111111,13.5783884 L231.111111,9.40203305 C231.111111,8.82539871 230.638523,8.35794422 230.055556,8.35794422 C229.472588,8.35794422 229,8.82539871 229,9.40203305 L229,13.5783884 C229.002296,18.362362 232.637878,22.3809904 237.444444,22.9125425 L237.444444,25.0633655 L239.555556,25.0633655 L239.555556,22.9125425 C244.362122,22.3809904 247.997704,18.362362 248,13.5783884 L248,9.40203305 C248,8.82539871 247.527412,8.35794422 246.944444,8.35794422 Z M235.333333,13.5783884 C235.333333,14.1550227 234.860745,14.6224772 234.277778,14.6224772 L233.327778,14.6224772 C233.827259,17.0555425 235.990014,18.8040661 238.5,18.8040661 C241.009986,18.8040661 243.172741,17.0555425 243.672222,14.6224772 L242.722222,14.6224772 C242.139255,14.6224772 241.666667,14.1550227 241.666667,13.5783884 C241.666667,13.001754 242.139255,12.5342995 242.722222,12.5342995 L243.777778,12.5342995 L243.777778,10.4461219 L242.722222,10.4461219 C242.139255,10.4461219 241.666667,9.97866739 241.666667,9.40203305 C241.666667,8.82539871 242.139255,8.35794422 242.722222,8.35794422 L243.777778,8.35794422 L243.777778,6.26976655 L242.722222,6.26976655 C242.139255,6.26976655 241.666667,5.80231206 241.666667,5.22567772 C241.666667,4.64904338 242.139255,4.18158889 242.722222,4.18158889 L243.672222,4.18158889 C243.172741,1.74852365 241.009986,0 238.5,0 C235.990014,0 233.827259,1.74852365 233.327778,4.18158889 L234.277778,4.18158889 C234.860745,4.18158889 235.333333,4.64904338 235.333333,5.22567772 C235.333333,5.80231206 234.860745,6.26976655 234.277778,6.26976655 L233.222222,6.26976655 L233.222222,8.35794422 L234.277778,8.35794422 C234.860745,8.35794422 235.333333,8.82539871 235.333333,9.40203305 C235.333333,9.97866739 234.860745,10.4461219 234.277778,10.4461219 L233.222222,10.4461219 L233.222222,12.5342995 L234.277778,12.5342995 C234.860745,12.5342995 235.333333,13.001754 235.333333,13.5783884 Z" id="mic-alt"></path>
                <path d="M5.54166667,4 L3.16666667,4 C2.32680994,3.99998539 1.52134735,4.33159056 0.927478961,4.92186305 C0.333610577,5.51213555 -1.46978785e-05,6.31272105 0,7.14749242 L0,9.50811173 C-1.46978785e-05,10.3428831 0.333610577,11.1434686 0.927478961,11.7337411 C1.52134735,12.3240136 2.32680994,12.6556188 3.16666667,12.6556041 L5.54166667,12.6556041 C5.80924845,12.6521964 6.07529405,12.6148001 6.33333333,12.5443245 L6.33333333,12.6556041 C6.33233428,13.5243485 5.6240367,14.2283573 4.75,14.2293503 L4.75,16.5899697 C6.93506375,16.5874201 8.70576822,14.8274373 8.70833333,12.6556041 L8.70833333,9.90154828 L8.66842542,9.90154828 C8.69011673,9.77137769 8.70344634,9.63996627 8.70833333,9.50811173 L8.70833333,7.14749242 C8.70835013,6.31272041 8.37472553,5.51213369 7.78085669,4.92186075 C7.18698785,4.3315878 6.38152403,3.9999833 5.54166667,4 Z M19,7.14749242 C19.0000168,6.31272041 18.6663922,5.51213369 18.0725234,4.92186075 C17.4786545,4.3315878 16.6731907,3.9999833 15.8333333,4 L13.4583333,4 C12.6184766,3.99998539 11.813014,4.33159056 11.2191456,4.92186305 C10.6252772,5.51213555 10.291652,6.31272105 10.2916667,7.14749242 L10.2916667,9.50811173 C10.291652,10.3428831 10.6252772,11.1434686 11.2191456,11.7337411 C11.813014,12.3240136 12.6184766,12.6556188 13.4583333,12.6556041 L15.8333333,12.6556041 C16.1009151,12.6521964 16.3669607,12.6148001 16.625,12.5443245 L16.625,12.6556041 C16.6240009,13.5243485 15.9157034,14.2283573 15.0416667,14.2293503 L15.0416667,16.5899697 C17.2267304,16.5874201 18.9974349,14.8274373 19,12.6556041 L19,9.90154828 L18.9600921,9.90154828 C18.9817834,9.77137769 18.995113,9.63996627 19,9.50811173 L19,7.14749242 Z" id="quote-close"></path>
                <path d="M431.875183,4.55618988e-07 L427.125305,4.55618988e-07 C423.499046,-0.0012859457 420.450741,2.72160605 420.045153,6.3243306 C419.639565,9.92705515 422.006196,13.2592864 425.542013,14.0639436 L425.542013,18.9953928 L431.083537,14.2465447 L431.875183,14.2465447 C435.810111,14.2465447 439,11.0573472 439,7.12327259 C439,3.18919802 435.810111,4.55618988e-07 431.875183,4.55618988e-07 Z M430.291891,9.49769664 L425.542013,9.49769664 C425.104799,9.49769664 424.750366,9.14334135 424.750366,8.70622196 C424.750366,8.26910256 425.104799,7.91474728 425.542013,7.91474728 L430.291891,7.91474728 C430.729105,7.91474728 431.083537,8.26910256 431.083537,8.70622196 C431.083537,9.14334135 430.729105,9.49769664 430.291891,9.49769664 Z M433.458476,6.33179791 L425.542013,6.33179791 C425.104799,6.33179791 424.750366,5.97744263 424.750366,5.54032323 C424.750366,5.10320383 425.104799,4.74884855 425.542013,4.74884855 L433.458476,4.74884855 C433.89569,4.74884855 434.250122,5.10320383 434.250122,5.54032323 C434.250122,5.97744263 433.89569,6.33179791 433.458476,6.33179791 Z" id="chat-conversation"></path>
                <path d="M116.583333,9.36124783 C115.708882,9.36124783 115,10.0732547 115,10.9515598 C115,11.8298648 115.708882,12.5418717 116.583333,12.5418717 C117.457784,12.5418717 118.166667,11.8298648 118.166667,10.9515598 C118.166623,10.0732729 117.457766,9.36129174 116.583333,9.36124783 Z M116.583333,3 C115.708882,3 115,3.71200692 115,4.59031196 C115,5.468617 115.708882,6.18062391 116.583333,6.18062391 C117.457784,6.18062391 118.166667,5.468617 118.166667,4.59031196 C118.166623,3.7120251 117.457766,3.00004391 116.583333,3 Z M116.583333,15.7224957 C115.708882,15.7224957 115,16.4345026 115,17.3128076 C115,18.1911127 115.708882,18.9031196 116.583333,18.9031196 C117.457784,18.9031196 118.166667,18.1911127 118.166667,17.3128076 C118.166623,16.4345208 117.457766,15.7225396 116.583333,15.7224957 Z M122.916667,6.18062391 L132.416667,6.18062391 C133.291118,6.18062391 134,5.468617 134,4.59031196 C134,3.71200692 133.291118,3 132.416667,3 L122.916667,3 C122.042216,3 121.333333,3.71200692 121.333333,4.59031196 C121.333333,5.468617 122.042216,6.18062391 122.916667,6.18062391 Z M132.416667,9.36124783 L122.916667,9.36124783 C122.042216,9.36124783 121.333333,10.0732547 121.333333,10.9515598 C121.333333,11.8298648 122.042216,12.5418717 122.916667,12.5418717 L132.416667,12.5418717 C133.291118,12.5418717 134,11.8298648 134,10.9515598 C134,10.0732547 133.291118,9.36124783 132.416667,9.36124783 Z M132.416667,15.7224957 L122.916667,15.7224957 C122.042216,15.7224957 121.333333,16.4345026 121.333333,17.3128076 C121.333333,18.1911127 122.042216,18.9031196 122.916667,18.9031196 L132.416667,18.9031196 C133.291118,18.9031196 134,18.1911127 134,17.3128076 C134,16.4345026 133.291118,15.7224957 132.416667,15.7224957 Z" id="list"></path>
                <path d="M201.662353,17.5371655 L192.184706,17.5371655 C191.530411,17.5371655 191,18.0874584 191,18.7662792 C191,19.4450999 191.530411,19.9953928 192.184706,19.9953928 L201.662353,19.9953928 C202.316648,19.9953928 202.847059,19.4450999 202.847059,18.7662792 C202.847059,18.0874584 202.316648,17.5371655 201.662353,17.5371655 Z M192.1875,3.45822731 L208.8125,3.45822731 C209.468338,3.45822731 210,2.90793438 210,2.22911365 C210,1.55029293 209.468338,1 208.8125,1 L192.1875,1 C191.531662,1 191,1.55029293 191,2.22911365 C191,2.90793438 191.531662,3.45822731 192.1875,3.45822731 Z M208.8125,12.1737605 L192.1875,12.1737605 C191.531662,12.1737605 191,12.7240534 191,13.4028741 C191,14.0816949 191.531662,14.6319878 192.1875,14.6319878 L208.8125,14.6319878 C209.468338,14.6319878 210,14.0816949 210,13.4028741 C210,12.7240534 209.468338,12.1737605 208.8125,12.1737605 Z M208.8125,6.58688024 L192.1875,6.58688024 C191.531662,6.58688024 191,7.13717317 191,7.8159939 C191,8.49481462 191.531662,9.04510755 192.1875,9.04510755 L208.8125,9.04510755 C209.468338,9.04510755 210,8.49481462 210,7.8159939 C210,7.13717317 209.468338,6.58688024 208.8125,6.58688024 Z" id="align-justify-left"></path>
                <path d="M514.099611,1.87975241 L512.199706,1.87975241 L512.199706,0.939876207 C512.199706,0.420796911 511.774397,0 511.249753,0 C510.725109,0 510.299801,0.420796911 510.299801,0.939876207 L510.299801,1.87975241 L507.449478,1.87975241 L507.449478,0.939876207 C507.449478,0.420796911 507.024169,0 506.499525,0 C505.974881,0 505.549573,0.420796911 505.549573,0.939876207 L505.549573,1.87975241 L502.70018,1.87975241 L502.70018,0.939876207 C502.70018,0.420796911 502.274872,0 501.750228,0 C501.225584,0 500.800275,0.420796911 500.800275,0.939876207 L500.800275,1.87975241 L498.90037,1.87975241 C498.396359,1.87974494 497.912988,2.07783583 497.556597,2.43044578 C497.200207,2.78305573 496.999992,3.2612996 497,3.75996537 L497,20.6772766 C497.000031,21.7154223 497.850629,22.5569978 498.899905,22.557029 L514.099145,22.557029 C515.148421,22.5569978 515.999019,21.7154223 515.99905,20.6772766 L515.99905,9.39876207 L516,9.39876207 L516,3.75996537 C516.000008,3.26129634 515.79979,2.78304962 515.443396,2.43043913 C515.087002,2.07782864 514.603626,1.87973995 514.099611,1.87975241 Z M511.249288,16.9177717 L501.749763,16.9177717 C501.225118,16.9177717 500.79981,16.4969748 500.79981,15.9778955 C500.79981,15.4588162 501.225118,15.0380193 501.749763,15.0380193 L511.249288,15.0380193 C511.773932,15.0380193 512.19924,15.4588162 512.19924,15.9778955 C512.19924,16.4969748 511.773932,16.9177717 511.249288,16.9177717 Z M511.249288,11.2785145 L501.749763,11.2785145 C501.225118,11.2785145 500.79981,10.8577176 500.79981,10.3386383 C500.79981,9.81955898 501.225118,9.39876207 501.749763,9.39876207 L511.249288,9.39876207 C511.773932,9.39876207 512.19924,9.81955898 512.19924,10.3386383 C512.19924,10.8577176 511.773932,11.2785145 511.249288,11.2785145 Z" id="memo"></path>
                <path d="M667.1,0 L664.25,0 L664.25,9.39876207 L661.4,7.51900966 L658.55,9.39876207 L658.55,0 L650,0 L650,22.557029 L667.1,22.557029 C668.149328,22.5569978 668.999969,21.7154223 669,20.6772766 L669,1.87975241 C669,0.841593823 668.149341,0 667.1,0 Z" id="journal"></path>
                <path d="M462.958333,2.5829494 L474.041667,2.5829494 C474.478892,2.5829494 474.833333,2.22859411 474.833333,1.7914747 C474.833333,1.35435529 474.478892,1 474.041667,1 L462.958333,1 C462.521108,1 462.166667,1.35435529 462.166667,1.7914747 C462.166667,2.22859411 462.521108,2.5829494 462.958333,2.5829494 Z M461.375,5.74884821 L475.625,5.74884821 C476.062225,5.74884821 476.416667,5.39449291 476.416667,4.9573735 C476.416667,4.5202541 476.062225,4.1658988 475.625,4.1658988 L461.375,4.1658988 C460.937775,4.1658988 460.583333,4.5202541 460.583333,4.9573735 C460.583333,5.39449291 460.937775,5.74884821 461.375,5.74884821 Z M476.416667,7.33179761 L460.583333,7.33179761 C459.708882,7.33179761 459,8.04050819 459,8.91474701 L459,10.7829043 L467.504622,14.7073366 C468.136175,14.9989907 468.863939,14.9988489 469.495378,14.7069488 L478,10.7828568 L478,8.91474701 C477.999974,8.04051906 477.291107,7.33182383 476.416667,7.33179761 Z M468.5,16.509018 C467.927229,16.5090114 467.36129,16.3846688 466.841292,16.1445835 L459,12.5259453 L459,18.4124434 C459,19.2866822 459.708882,19.9953928 460.583333,19.9953928 L476.416667,19.9953928 C477.291118,19.9953928 478,19.2866822 478,18.4124434 L478,12.5258662 L470.158708,16.1442036 C469.638795,16.384584 469.072818,16.5090645 468.5,16.509018 Z" id="mail-cascade"></path>
                <path d="M552.416279,1.5829494 L550.041667,1.5829494 L550.041667,0.791474701 C550.041667,0.354355294 549.687225,0 549.25,0 C548.812775,0 548.458333,0.354355294 548.458333,0.791474701 L548.458333,1.5829494 L540.541667,1.5829494 L540.541667,0.791474701 C540.541667,0.354355294 540.187225,0 539.75,0 C539.312775,0 538.958333,0.354355294 538.958333,0.791474701 L538.958333,1.5829494 L536.583721,1.5829494 C536.16369,1.5829431 535.760861,1.74975649 535.463854,2.04669118 C535.166848,2.34362588 534.999994,2.74635755 535,3.16628663 L535,17.4120398 C534.99999,17.8319716 535.166841,18.2347073 535.463849,18.5316454 C535.760856,18.8285836 536.163688,18.9953991 536.583721,18.9953928 L552.416263,18.9953928 C552.836297,18.9954033 553.23913,18.8285918 553.53614,18.5316566 C553.83315,18.2347215 554.000006,17.8319874 554,17.4120556 L554,3.16630246 C554.00001,2.74637064 553.833159,2.3436349 553.536151,2.04669678 C553.239144,1.74975866 552.836312,1.5829431 552.416279,1.5829494 Z M538.958333,4.74884821 C538.958333,4.3117288 539.312775,3.9573735 539.75,3.9573735 C540.187225,3.9573735 540.541667,4.3117288 540.541667,4.74884821 C540.541667,5.18596761 540.187225,5.54032291 539.75,5.54032291 C539.312775,5.54032291 538.958333,5.18596761 538.958333,4.74884821 Z M542.916667,15.0380193 C542.916667,15.4751387 542.562225,15.829494 542.125,15.829494 C541.687775,15.829494 541.333333,15.4751387 541.333333,15.0380193 L541.333333,9.98695441 L540.895755,10.2056943 C540.504837,10.3999495 540.030407,10.2412207 539.835177,9.85085964 C539.639947,9.46049854 539.797587,8.98580772 540.187578,8.78969855 L541.770911,7.99822385 C542.016339,7.87556518 542.307792,7.88869257 542.541193,8.03291822 C542.774594,8.17714387 542.916663,8.4319033 542.916667,8.70622171 L542.916667,15.0380193 Z M546.875,15.829494 L545.291667,15.829494 C544.854441,15.829494 544.5,15.4751387 544.5,15.0380193 C544.5,14.6008999 544.854441,14.2465446 545.291667,14.2465446 L546.875,14.2465446 C547.312225,14.2465446 547.666667,13.8921893 547.666667,13.4550699 C547.666667,13.0179505 547.312225,12.6635952 546.875,12.6635952 L545.291667,12.6635952 C545.081687,12.6636498 544.880292,12.5802801 544.731813,12.4318379 C544.583335,12.2833958 544.499945,12.0820494 544.5,11.8721205 L544.5,8.70622171 C544.499945,8.49629283 544.583335,8.29494642 544.731813,8.14650428 C544.880292,7.99806215 545.081687,7.91469241 545.291667,7.91474701 L548.0625,7.91474701 C548.499725,7.91474701 548.854167,8.2691023 548.854167,8.70622171 C548.854167,9.14334112 548.499725,9.49769641 548.0625,9.49769641 L546.083333,9.49769641 L546.083333,11.0806458 L546.875,11.0806458 C548.186676,11.0806458 549.25,12.1437117 549.25,13.4550699 C549.25,14.7664281 548.186676,15.829494 546.875,15.829494 Z M549.25,5.54032291 C548.812775,5.54032291 548.458333,5.18596761 548.458333,4.74884821 C548.458333,4.3117288 548.812775,3.9573735 549.25,3.9573735 C549.687225,3.9573735 550.041667,4.3117288 550.041667,4.74884821 C550.041667,5.18596761 549.687225,5.54032291 549.25,5.54032291 Z" id="calendar-15"></path>
                <path d="M705.416651,4.39941804 L696.70823,4.39941804 L695.124881,2 L689.583349,2 C688.708908,2.00004417 688.000044,2.71618899 688,3.59961203 L688,16.3965082 C688.000044,17.2799313 688.708908,17.9960761 689.583349,17.9961203 L695.916746,17.9961203 L695.916746,13.1972842 L693.869721,13.1972842 C693.549532,13.1973025 693.260857,13.0024688 693.138296,12.7036273 C693.015734,12.4047859 693.08342,12.060783 693.309793,11.8320153 L697.500127,7.5986421 L701.69046,11.8320153 C701.916806,12.0607552 701.984506,12.4047057 701.861999,12.7035276 C701.739492,13.0023495 701.450896,13.1972151 701.130746,13.1972842 L699.083523,13.1972842 L699.083523,17.9961203 L705.416651,17.9961203 C706.291092,17.9960761 706.999956,17.2799313 707,16.3965082 L707,5.99903007 C706.999956,5.11560704 706.291092,4.39946221 705.416651,4.39941804 Z" id="folder-upload"></path>
                <path d="M93.4166508,5.38546794 L87.0834442,5.38546794 L87.0834442,10.1564038 L89.1304692,10.1564038 C89.4506567,10.1563948 89.7393184,10.3501213 89.8618396,10.6472407 C89.9843608,10.94436 89.9166104,11.2863532 89.6901832,11.5137351 L85.500095,15.7224957 L81.3097614,11.5137351 C81.0833869,11.2862964 81.0157017,10.9442916 81.1382654,10.6471869 C81.2608291,10.3500822 81.5495067,10.1563824 81.869697,10.1564038 L83.9167458,10.1564038 L83.9167458,4.19312359 L83.1248812,3 L77.5833492,3 C76.7089077,3.00004391 76.0000437,3.7120251 76,4.59031196 L76,17.3128076 C76.0000437,18.1910945 76.7089077,18.9030757 77.5833492,18.9031196 L93.4166508,18.9031196 C94.2910923,18.9030757 94.9999563,18.1910945 95,17.3128076 L95,6.97577989 C94.9999563,6.09749304 94.2910923,5.38551185 93.4166508,5.38546794 Z" id="folder-download"></path>
                <path d="M587.926069,8.44137564 C587.926069,5.43618686 585.496753,3 582.500038,3 C579.503324,3 577.074007,5.43618686 577.074007,8.44137564 C574.719446,8.54870381 572.897458,10.5498573 573.004484,12.9110771 C573.111509,15.2722968 575.10702,17.099437 577.461581,16.9921088 L587.538496,16.9921088 C589.06163,17.0615379 590.505999,16.3108129 591.327524,15.0227244 C592.149049,13.734636 592.22292,12.1048754 591.521311,10.7473578 C590.819702,9.38984024 589.449203,8.5108048 587.926069,8.44137564 Z" id="cloud"></path>
                <path d="M170.575,8.14943356 C171.362006,8.14943356 172,7.50925664 172,6.71955839 C172,5.92986013 171.362006,5.28968321 170.575,5.28968321 L168.329646,5.28968321 L168.663866,2.60723738 C168.761476,1.82370935 168.207595,1.10913542 167.426738,1.01119179 C166.645881,0.913248154 165.933744,1.46902406 165.836134,2.25255207 L165.457854,5.28968321 L160.729647,5.28968321 L161.063866,2.60723738 C161.161476,1.82370935 160.607595,1.10913542 159.826738,1.01119179 C159.045881,0.913248154 158.333744,1.46902406 158.236134,2.25255207 L157.857854,5.28968321 L155.375,5.28968321 C154.587994,5.28968321 153.95,5.92986013 153.95,6.71955839 C153.95,7.50925664 154.587994,8.14943356 155.375,8.14943356 L157.501604,8.14943356 L157.026604,11.962434 L154.425,11.962434 C153.637994,11.962434 153,12.602611 153,13.3923092 C153,14.1820075 153.637994,14.8221844 154.425,14.8221844 L156.670354,14.8221844 L156.336134,17.5046302 C156.289145,17.8809138 156.393108,18.2605109 156.625136,18.5598546 C156.857163,18.8591984 157.198234,19.0537486 157.573262,19.100676 C157.63251,19.108076 157.692157,19.1118071 157.751862,19.111848 C158.469811,19.1109146 159.074922,18.5741323 159.163876,17.8592774 L159.542156,14.8222225 L164.270363,14.8222225 L163.936144,17.5046684 C163.889155,17.880952 163.993118,18.260549 164.225145,18.5598928 C164.457173,18.8592365 164.798243,19.0537868 165.173271,19.1007141 C165.23252,19.1081141 165.292166,19.1118452 165.351871,19.1118862 C166.069821,19.1109527 166.674931,18.5741704 166.763885,17.8593155 L167.142165,14.8222606 L169.625,14.8222606 C170.412006,14.8222606 171.05,14.1820837 171.05,13.3923855 C171.05,12.6026872 170.412006,11.9625103 169.625,11.9625103 L167.498396,11.9625103 L167.973396,8.14950982 L170.575,8.14943356 Z M164.626604,11.962434 L159.898397,11.962434 L160.373397,8.14943356 L165.101604,8.14943356 L164.626604,11.962434 Z" id="hashtag"></path>
                <path d="M276.418132,0.0447144034 C272.125374,0.630802973 268.742983,3.96092205 268.125599,8.20909543 C267.643899,11.2119232 268.562765,14.2691314 270.624147,16.5221502 C271.794229,17.8047671 272.521204,19.4233156 272.699566,21.1428964 L282.303816,21.1428964 C282.469384,19.4373472 283.185385,17.8300245 284.345692,16.5591687 C286.060982,14.7110273 287.008103,12.2893407 286.997411,9.77900368 C287.061294,7.04575002 285.940336,4.4162489 283.918,2.5554421 C281.895665,0.694635307 279.165584,-0.21931292 276.418132,0.0447144034 Z M272.754578,25.8451563 C272.754618,27.1436334 273.817384,28.1962473 275.128384,28.1962862 L279.875995,28.1962862 C281.186995,28.1962473 282.249761,27.1436334 282.2498,25.8451563 L282.2498,23.4940263 L272.754578,23.4940263 L272.754578,25.8451563 Z" id="lightbulb"></path>
                <path d="M38,0 L38,3.79907856 C38,4.84816514 38.850659,5.69861785 39.9,5.69861785 C40.949341,5.69861785 41.8,4.84816514 41.8,3.79907856 L45.6,3.79907856 L45.6,15.1963143 L44.65,15.1963143 C43.600659,15.1963143 42.75,16.046767 42.75,17.0958535 C42.75,18.1449401 43.600659,18.9953928 44.65,18.9953928 L50.35,18.9953928 C51.399341,18.9953928 52.25,18.1449401 52.25,17.0958535 C52.25,16.046767 51.399341,15.1963143 50.35,15.1963143 L49.4,15.1963143 L49.4,3.79907856 L53.2,3.79907856 C53.2,4.84816514 54.050659,5.69861785 55.1,5.69861785 C56.149341,5.69861785 57,4.84816514 57,3.79907856 L57,0 L38,0 Z" id="typography"></path>
                <path d="M627.545455,0 L615.454545,0 C614.538338,-1.60301613e-05 613.659652,0.363850562 613.011795,1.01154989 C612.363939,1.65924921 611.999984,2.53772262 612,3.45370779 L612,15.541685 C612.000043,17.4490974 613.54667,18.9953499 615.454545,18.9953928 L627.545455,18.9953928 C629.453332,18.9953547 630.999962,17.4490994 631,15.541685 L631,3.45370779 C631.000018,2.53772191 630.636064,1.65924718 629.988207,1.01154736 C629.34035,0.363847536 628.461663,-1.83202671e-05 627.545455,0 Z M626.473924,6.60597596 L620.765408,13.2642238 L616.663559,10.1882653 C616.415928,10.0034544 616.285948,9.70044089 616.322722,9.39369219 C616.359496,9.0869435 616.557417,8.82322046 616.841718,8.70214796 C617.126019,8.58107546 617.453361,8.62110982 617.700086,8.80712754 L620.507328,10.9117307 L625.162449,5.48200129 C625.363276,5.24778562 625.673831,5.1384756 625.977131,5.19524726 C626.28043,5.25201892 626.530396,5.4662473 626.632868,5.75723462 C626.73534,6.04822195 626.674751,6.37176032 626.473924,6.60597596 Z" id="check-square"></path>
            </g>
            <g id="Icon" transform="translate(355.000000, 22.000000)">
                <g id="Logo">
                    <path d="M51.0751516,44.5981869 C51.0751516,46.1969974 52.368035,47.4930894 53.9628877,47.4930894 C55.5577403,47.4930894 56.8506238,46.1969974 56.8506238,44.5981869 L56.8506238,2.89490246 C56.8506238,1.29609198 55.5577403,0 53.9628877,0 L12.3628401,0 C10.7679875,0 9.47510396,1.29609198 9.47510396,2.89490246 C9.47510396,4.49371294 10.7679875,5.78980492 12.3628401,5.78980492 L51.0751516,5.78980492 L51.0751516,44.5981869 Z" id="Path-2"></path>
                    <path d="M40.5507651,16.3403092 L40.5507651,31.859735 C40.5507651,32.8122406 41.321012,33.5843989 42.2711596,33.5843989 C43.2213073,33.5843989 43.9915541,32.8122406 43.9915541,31.859735 L43.9915541,14.6156453 C43.9915541,13.6631397 43.2213073,12.8909814 42.2711596,12.8909814 L25.0697578,12.8909814 C24.1196102,12.8909814 23.3493633,13.6631397 23.3493633,14.6156453 C23.3493633,15.5681509 24.1196102,16.3403092 25.0697578,16.3403092 L40.5507651,16.3403092 Z" id="Path-2"></path>
                    <path d="M5.77547221,51.2019023 L44.4877837,51.2019023 C46.0826363,51.2019023 47.3755198,52.4979943 47.3755198,54.0968048 C47.3755198,55.6956152 46.0826363,56.9917072 44.4877837,56.9917072 L2.8877361,56.9917072 C1.29288349,56.9917072 0,55.6956152 0,54.0968048 L6.56825979e-15,12.3935203 C6.56825979e-15,10.7947098 1.29288349,9.49861787 2.8877361,9.49861787 C4.48258872,9.49861787 5.77547221,10.7947098 5.77547221,12.3935203 L5.77547221,51.2019023 Z" id="Path-2"></path>
                </g>
            </g>
        </g>
    </g>
</svg>